<svg width="14" height="10" viewBox="0 0 14 10" fill="none" xmlns="http://www.w3.org/2000/svg">
<path d="M12.6875 0H1.31251C0.588747 0 0 0.560711 0 1.25001V8.74999C0 9.43929 0.588747 10 1.31251 10H12.6875C13.4113 10 14 9.43929 14 8.74999V1.25001C14 0.560711 13.4113 0 12.6875 0ZM12.6875 0.833329C12.7469 0.833329 12.8035 0.845074 12.8552 0.865586L7 5.69865L1.14479 0.865586C1.19649 0.845102 1.25304 0.833329 1.31248 0.833329H12.6875ZM12.6875 9.16664H1.31251C1.07112 9.16664 0.874996 8.97989 0.874996 8.74997V1.74601L6.71331 6.56493C6.79578 6.63287 6.89789 6.66666 7 6.66666C7.10211 6.66666 7.20422 6.6329 7.28669 6.56493L13.125 1.74601V8.74999C13.125 8.97989 12.9289 9.16664 12.6875 9.16664Z" fill="#757575"/>
</svg>
